PathFileType	4	(X/Y/Z)	/Users/mathieubourgeois/Desktop/Analyse/Traitement/Sujet_04/Data/Transformed_Sujet_04_velo_100.trc
DataRate	CameraRate	NumFrames	NumMarkers	Units	OrigDataRate	OrigDataStartFrame	OrigNumFrames
120.000000	120.000000	4	36	mm	120.000000	974	1948
Frame#	Time	RFHD			RANE			STRN			LANI			LKNE			T10			RHUM			RWRB			C7			LFWT			LTOE			RTOE			LWRA			LBWT			RBWT			RFWT			LKNI			RKNI			RKNE			LANE			RANI			LHEE			RHEE			LHUM			LRAD			RRAD			RWRA			LWRB			LFHD			LBHD			RBHD			RSHO			LSHO			CLAV			LCAR			RCAR			
		X1	Y1	Z1	X2	Y2	Z2	X3	Y3	Z3	X4	Y4	Z4	X5	Y5	Z5	X6	Y6	Z6	X7	Y7	Z7	X8	Y8	Z8	X9	Y9	Z9	X10	Y10	Z10	X11	Y11	Z11	X12	Y12	Z12	X13	Y13	Z13	X14	Y14	Z14	X15	Y15	Z15	X16	Y16	Z16	X17	Y17	Z17	X18	Y18	Z18	X19	Y19	Z19	X20	Y20	Z20	X21	Y21	Z21	X22	Y22	Z22	X23	Y23	Z23	X24	Y24	Z24	X25	Y25	Z25	X26	Y26	Z26	X27	Y27	Z27	X28	Y28	Z28	X29	Y29	Z29	X30	Y30	Z30	X31	Y31	Z31	X32	Y32	Z32	X33	Y33	Z33	X34	Y34	Z34	X35	Y35	Z35	X36	Y36	Z36	

975	8.116666666666667	327.5176391601562	1485.024536132812	40.57638549804683	-141.9853973388672	284.949462890625	138.6790008544921	-39.91497039794921	1211.0166015625	-32.44408416748055	-246.7326049804687	594.65478515625	-134.5234680175782	32.26095581054691	900.7799072265625	-263.4010925292969	-181.8370666503906	1437.032470703125	-18.67948150634777	84.02237701416013	1068.277587890625	192.6824035644531	314.8807373046875	905.76904296875	227.8157653808593	81.77637481689453	1501.064697265625	-17.72373962402352	-237.8115844726562	1167.136596679688	-154.9097137451173	-144.4606170654297	431.078125	-161.0909881591797	76.42935180664061	207.1910095214844	66.60321044921875	323.2310485839844	943.6165161132812	-214.7101440429688	-395.8122863769531	1264.340087890625	-74.55160522460949	-395.3312683105469	1252.639282226562	59.36665344238268	-234.8971405029297	1164.038940429688	130.2449493408202	41.29145431518557	860.6791381835938	-145.8151397705079	-46.75273513793946	698.5377197265625	41.19184875488276	-48.56933593750002	739.65771484375	157.171401977539	-293.9522399902344	599.939208984375	-221.8569488525391	-113.0300750732422	291.9623107910156	46.47396469116207	-343.1874084472656	608.2710571289062	-166.5864715576172	-192.5157318115234	271.6026916503906	96.72064971923824	83.11506652832034	1082.72998046875	-246.7327117919922	121.7911605834961	1103.721923828125	-306.6315612792969	127.6870803833008	1088.067626953125	245.0743865966797	323.8186340332031	916.8466186523438	154.5525207519531	284.5271606445313	890.1781616210938	-261.9703979492188	315.7154541015625	1485.836181640625	-90.94673919677739	182.3790283203125	1581.826538085938	-66.21927642822273	197.6366577148438	1570.025512695312	72.81109619140618	98.19659423828124	1418.14306640625	140.9176940917968	102.0269317626953	1423.459350585938	-193.2963867187501	80.171142578125	1329.438110351562	-31.04011726379402	399.2959594726563	914.9412841796875	-295.2678527832031	403.2669982910156	932.1279907226562	237.6716156005859	
976	8.125	328.0482482910156	1485.19482421875	38.9121704101562	-153.3606567382813	278.0407104492188	138.0276489257812	-38.94776535034179	1211.238403320312	-33.89310836792	-238.0928649902343	603.8896484375	-134.2687683105469	38.02397155761722	912.062255859375	-263.4040527343751	-181.1861114501953	1437.2216796875	-19.08649826049816	84.52682495117185	1068.5869140625	191.3934326171874	314.4882202148438	906.6171264648438	228.1415863037109	82.40966796875	1501.175537109375	-19.44094848632821	-237.347412109375	1168.679565429688	-154.8349609375001	-132.2690277099609	442.8569030761719	-160.4586029052735	63.93631362915038	196.2881164550781	66.40534210205078	323.5822448730469	943.8032836914062	-215.0707092285157	-395.2805786132812	1265.366088867188	-74.03598785400402	-394.4750061035156	1253.247192382812	59.85549545288073	-234.5789794921875	1163.533813476562	129.7434234619139	47.67985916137697	871.6395263671875	-145.8835601806641	-55.76026916503907	692.3216552734375	41.28003692626948	-58.68521881103518	732.531494140625	157.3956604003906	-284.947265625	608.0592651367188	-221.9608001708985	-123.6160278320312	284.8514709472656	46.02926254272458	-334.8284301757812	614.9569091796875	-166.6276550292969	-203.6911315917969	265.6234436035156	95.95072174072261	83.38809204101565	1082.762939453125	-247.1445617675782	121.9525985717774	1103.594482421875	-307.2835693359376	128.1627349853515	1088.433959960938	243.9943084716797	324.0970764160156	916.7905883789062	154.0323333740234	284.8669433593751	889.9703369140625	-261.7881164550781	316.2387084960938	1486.069946289062	-92.58771514892582	182.8837127685547	1581.991333007812	-67.84638214111335	198.156494140625	1570.094848632812	71.23321533203118	99.20050048828124	1418.407348632812	139.1031188964843	102.3741073608399	1423.679443359375	-194.9839172363282	80.86184692382812	1329.651489257812	-32.68398284912116	399.3549804687501	914.736083984375	-295.6743469238281	403.4946899414062	932.1625366210938	237.2106323242188	
977	8.133333333333333	328.5331726074219	1485.228637695312	37.28347778320308	-164.928939819336	272.0441284179688	137.7144775390624	-38.08118438720702	1211.461181640625	-35.21211624145516	-228.6619567871093	611.7077026367188	-134.1327362060547	44.4445838928223	922.938720703125	-263.2532348632813	-180.5857238769531	1437.517456054688	-19.53412628173839	85.04619598388669	1068.921020507812	190.2883148193359	315.3392333984375	905.9570922851562	226.8325653076172	82.96987152099609	1501.269897460938	-21.11287879943856	-236.7897338867187	1170.299438476562	-154.6963195800782	-117.7937316894531	454.0654602050781	-160.1224670410157	50.60731506347656	186.5787811279297	66.23075866699217	323.6710205078125	943.7796020507812	-215.504150390625	-394.7876892089844	1266.42626953125	-73.67472076416027	-393.8404235839844	1253.976196289062	60.12152099609362	-234.4978790283203	1163.419677734375	129.3363342285155	51.36167907714845	884.8749389648438	-144.0299987792969	-65.09816741943359	686.1957397460938	41.42750549316401	-68.22217559814455	726.4187622070312	157.5966491699218	-275.1156311035156	614.7080688476562	-222.1809539794922	-135.0930023193359	278.9962463378906	45.69998550415036	-326.2351379394531	620.409912109375	-167.032455444336	-215.5894165039062	260.8569030761719	95.21775817871089	83.50782775878909	1082.863647460938	-247.9095306396485	122.0946502685547	1103.494262695312	-308.0899658203126	128.6135559082031	1088.819091796875	242.9221649169922	324.4036865234375	916.7113037109375	153.5307006835937	284.9226379394532	889.837890625	-262.1300964355469	316.7027282714844	1486.156127929688	-94.21806335449223	183.3812713623047	1582.064575195312	-69.45262145996101	198.6019439697266	1570.0908203125	69.59523773193352	100.1760482788086	1418.644897460938	137.2862701416015	102.6448822021485	1423.848022460938	-196.4797515869141	81.5152587890625	1329.851196289062	-34.22366714477546	399.4653930664063	914.5479125976562	-296.0085754394531	403.6737060546874	932.213623046875	236.8664855957031	
978	8.141666666666666	328.8891906738281	1485.149169921875	35.70568084716792	-177.6308898925782	267.5337219238281	137.318374633789	-37.42946624755859	1211.742309570312	-36.47443389892586	-218.4642333984375	618.0119018554688	-134.1074371337891	48.92995452880863	933.6585693359375	-263.2180786132813	-180.109375	1437.948852539062	-19.96770668029796	85.50648498535153	1069.2314453125	189.0207824707031	315.5302429199219	906.0485229492188	226.456069946289	83.4619140625	1501.337646484375	-22.67346954345711	-236.1052093505859	1171.9208984375	-154.5095214843751	-103.1071319580078	463.5499267578125	-159.7710876464844	36.50647354125976	178.0150146484375	66.09251403808592	323.7787170410156	943.7743530273438	-215.8934478759766	-394.3176574707031	1267.529052734375	-73.67028045654308	-393.4223937988281	1254.807006835938	60.12558746337878	-234.6808013916016	1163.631103515625	129.0417938232421	56.74537277221681	895.6514282226562	-143.8194732666016	-73.79923248291016	680.9169311523438	41.567455291748	-77.11031341552736	721.2554321289062	157.7000427246093	-264.5093078613281	619.8137817382812	-222.4328002929688	-147.3737640380859	274.2559509277344	45.47856521606442	-314.6217651367188	624.0293579101562	-167.5180969238282	-228.2314605712891	257.3283081054688	94.77979278564449	83.69368743896487	1082.840698242188	-248.5724792480469	122.2662124633789	1103.359619140625	-308.8445434570313	129.0158233642578	1089.1748046875	241.9042663574218	324.0125732421875	916.8056030273438	153.9273071289062	284.9603881835938	889.75341796875	-262.5049743652344	317.0990295410156	1486.095947265625	-95.76850891113286	183.7892761230469	1582.035400390625	-71.05271911621101	199.0082397460938	1570.043823242188	67.9931335449218	101.1182022094726	1418.875732421875	135.4745178222655	102.7911529541016	1423.944458007812	-197.9763641357423	82.07731628417969	1330.024536132812	-35.7069396972657	399.6437988281251	914.2250366210938	-296.2450561523438	403.8295898437499	932.2733154296875	236.5673522949219	
